<mxfile host="app.diagrams.net" modified="2023-05-15T13:21:02.742Z" agent="Mozilla/5.0 (Windows NT 10.0; Win64; x64) AppleWebKit/537.36 (KHTML, like Gecko) Chrome/113.0.0.0 Safari/537.36" etag="OM6sqNRGkQPingKW7Sbj" version="21.2.9" type="device">
  <diagram name="Página-1" id="Xs3ifvzI2LJTr8QBWfeC">
    <mxGraphModel dx="3720" dy="2811" grid="1" gridSize="10" guides="1" tooltips="1" connect="1" arrows="1" fold="1" page="1" pageScale="1" pageWidth="827" pageHeight="1169" math="0" shadow="0">
      <root>
        <mxCell id="0" />
        <mxCell id="1" parent="0" />
        <mxCell id="K2g0FsAZ2H5_rs0uaE8K-20" style="edgeStyle=orthogonalEdgeStyle;rounded=0;orthogonalLoop=1;jettySize=auto;html=1;entryX=0;entryY=0.5;entryDx=0;entryDy=0;" edge="1" parent="1" source="K2g0FsAZ2H5_rs0uaE8K-21" target="K2g0FsAZ2H5_rs0uaE8K-25">
          <mxGeometry relative="1" as="geometry" />
        </mxCell>
        <mxCell id="K2g0FsAZ2H5_rs0uaE8K-21" value="Abordagem pelo atendente" style="rounded=0;whiteSpace=wrap;html=1;" vertex="1" parent="1">
          <mxGeometry x="200" y="890" width="120" height="60" as="geometry" />
        </mxCell>
        <mxCell id="K2g0FsAZ2H5_rs0uaE8K-22" style="edgeStyle=orthogonalEdgeStyle;rounded=0;orthogonalLoop=1;jettySize=auto;html=1;" edge="1" parent="1" source="K2g0FsAZ2H5_rs0uaE8K-23" target="K2g0FsAZ2H5_rs0uaE8K-21">
          <mxGeometry relative="1" as="geometry" />
        </mxCell>
        <mxCell id="K2g0FsAZ2H5_rs0uaE8K-23" value="Cliente entra na loja" style="ellipse;whiteSpace=wrap;html=1;" vertex="1" parent="1">
          <mxGeometry x="20" y="890" width="120" height="60" as="geometry" />
        </mxCell>
        <mxCell id="K2g0FsAZ2H5_rs0uaE8K-24" style="edgeStyle=orthogonalEdgeStyle;rounded=0;orthogonalLoop=1;jettySize=auto;html=1;" edge="1" parent="1" source="K2g0FsAZ2H5_rs0uaE8K-25" target="K2g0FsAZ2H5_rs0uaE8K-28">
          <mxGeometry relative="1" as="geometry" />
        </mxCell>
        <mxCell id="K2g0FsAZ2H5_rs0uaE8K-25" value="Amostra de modelos" style="rounded=0;whiteSpace=wrap;html=1;" vertex="1" parent="1">
          <mxGeometry x="380" y="890" width="120" height="60" as="geometry" />
        </mxCell>
        <mxCell id="K2g0FsAZ2H5_rs0uaE8K-26" value="" style="edgeStyle=orthogonalEdgeStyle;rounded=0;orthogonalLoop=1;jettySize=auto;html=1;" edge="1" parent="1" source="K2g0FsAZ2H5_rs0uaE8K-28" target="K2g0FsAZ2H5_rs0uaE8K-30">
          <mxGeometry relative="1" as="geometry" />
        </mxCell>
        <mxCell id="K2g0FsAZ2H5_rs0uaE8K-27" value="" style="edgeStyle=orthogonalEdgeStyle;rounded=0;orthogonalLoop=1;jettySize=auto;html=1;" edge="1" parent="1" source="K2g0FsAZ2H5_rs0uaE8K-28" target="K2g0FsAZ2H5_rs0uaE8K-33">
          <mxGeometry relative="1" as="geometry" />
        </mxCell>
        <mxCell id="K2g0FsAZ2H5_rs0uaE8K-28" value="Deseja comprar?" style="rhombus;whiteSpace=wrap;html=1;" vertex="1" parent="1">
          <mxGeometry x="570" y="890" width="120" height="60" as="geometry" />
        </mxCell>
        <mxCell id="K2g0FsAZ2H5_rs0uaE8K-29" style="edgeStyle=orthogonalEdgeStyle;rounded=0;orthogonalLoop=1;jettySize=auto;html=1;entryX=0.5;entryY=0;entryDx=0;entryDy=0;" edge="1" parent="1" source="K2g0FsAZ2H5_rs0uaE8K-30" target="K2g0FsAZ2H5_rs0uaE8K-42">
          <mxGeometry relative="1" as="geometry" />
        </mxCell>
        <mxCell id="K2g0FsAZ2H5_rs0uaE8K-30" value="Gerar o pedido" style="whiteSpace=wrap;html=1;" vertex="1" parent="1">
          <mxGeometry x="710" y="990" width="120" height="60" as="geometry" />
        </mxCell>
        <mxCell id="K2g0FsAZ2H5_rs0uaE8K-31" style="edgeStyle=orthogonalEdgeStyle;rounded=0;orthogonalLoop=1;jettySize=auto;html=1;entryX=0.5;entryY=0;entryDx=0;entryDy=0;" edge="1" parent="1" source="K2g0FsAZ2H5_rs0uaE8K-33" target="K2g0FsAZ2H5_rs0uaE8K-28">
          <mxGeometry relative="1" as="geometry" />
        </mxCell>
        <mxCell id="K2g0FsAZ2H5_rs0uaE8K-32" style="edgeStyle=orthogonalEdgeStyle;rounded=0;orthogonalLoop=1;jettySize=auto;html=1;" edge="1" parent="1" source="K2g0FsAZ2H5_rs0uaE8K-33" target="K2g0FsAZ2H5_rs0uaE8K-90">
          <mxGeometry relative="1" as="geometry" />
        </mxCell>
        <mxCell id="K2g0FsAZ2H5_rs0uaE8K-33" value="Incentivar a outros produtos" style="whiteSpace=wrap;html=1;" vertex="1" parent="1">
          <mxGeometry x="710" y="790" width="120" height="60" as="geometry" />
        </mxCell>
        <mxCell id="K2g0FsAZ2H5_rs0uaE8K-34" value="sim" style="text;html=1;strokeColor=none;fillColor=none;align=center;verticalAlign=middle;whiteSpace=wrap;rounded=0;" vertex="1" parent="1">
          <mxGeometry x="710" y="960" width="60" height="30" as="geometry" />
        </mxCell>
        <mxCell id="K2g0FsAZ2H5_rs0uaE8K-35" value="não" style="text;html=1;strokeColor=none;fillColor=none;align=center;verticalAlign=middle;whiteSpace=wrap;rounded=0;" vertex="1" parent="1">
          <mxGeometry x="710" y="850" width="60" height="30" as="geometry" />
        </mxCell>
        <mxCell id="K2g0FsAZ2H5_rs0uaE8K-36" style="edgeStyle=orthogonalEdgeStyle;rounded=0;orthogonalLoop=1;jettySize=auto;html=1;entryX=0;entryY=0.5;entryDx=0;entryDy=0;" edge="1" parent="1" source="K2g0FsAZ2H5_rs0uaE8K-37" target="K2g0FsAZ2H5_rs0uaE8K-51">
          <mxGeometry relative="1" as="geometry">
            <Array as="points">
              <mxPoint x="1250" y="1150" />
              <mxPoint x="1250" y="1030" />
            </Array>
          </mxGeometry>
        </mxCell>
        <mxCell id="K2g0FsAZ2H5_rs0uaE8K-37" value="A vista?" style="rhombus;whiteSpace=wrap;html=1;" vertex="1" parent="1">
          <mxGeometry x="1110" y="1120" width="120" height="60" as="geometry" />
        </mxCell>
        <mxCell id="K2g0FsAZ2H5_rs0uaE8K-38" value="" style="edgeStyle=orthogonalEdgeStyle;rounded=0;orthogonalLoop=1;jettySize=auto;html=1;entryX=0;entryY=0.5;entryDx=0;entryDy=0;" edge="1" parent="1" source="K2g0FsAZ2H5_rs0uaE8K-42" target="K2g0FsAZ2H5_rs0uaE8K-44">
          <mxGeometry relative="1" as="geometry">
            <Array as="points">
              <mxPoint x="870" y="1150" />
              <mxPoint x="870" y="1240" />
            </Array>
          </mxGeometry>
        </mxCell>
        <mxCell id="K2g0FsAZ2H5_rs0uaE8K-39" style="edgeStyle=orthogonalEdgeStyle;rounded=0;orthogonalLoop=1;jettySize=auto;html=1;entryX=0;entryY=0.5;entryDx=0;entryDy=0;" edge="1" parent="1" source="K2g0FsAZ2H5_rs0uaE8K-42" target="K2g0FsAZ2H5_rs0uaE8K-46">
          <mxGeometry relative="1" as="geometry" />
        </mxCell>
        <mxCell id="K2g0FsAZ2H5_rs0uaE8K-40" style="edgeStyle=orthogonalEdgeStyle;rounded=0;orthogonalLoop=1;jettySize=auto;html=1;entryX=0;entryY=0.5;entryDx=0;entryDy=0;" edge="1" parent="1" source="K2g0FsAZ2H5_rs0uaE8K-42" target="K2g0FsAZ2H5_rs0uaE8K-48">
          <mxGeometry relative="1" as="geometry">
            <Array as="points">
              <mxPoint x="870" y="1150" />
              <mxPoint x="870" y="1340" />
            </Array>
          </mxGeometry>
        </mxCell>
        <mxCell id="K2g0FsAZ2H5_rs0uaE8K-41" style="edgeStyle=orthogonalEdgeStyle;rounded=0;orthogonalLoop=1;jettySize=auto;html=1;entryX=0;entryY=0.5;entryDx=0;entryDy=0;" edge="1" parent="1" source="K2g0FsAZ2H5_rs0uaE8K-42" target="K2g0FsAZ2H5_rs0uaE8K-92">
          <mxGeometry relative="1" as="geometry">
            <Array as="points">
              <mxPoint x="870" y="1150" />
              <mxPoint x="870" y="1440" />
            </Array>
          </mxGeometry>
        </mxCell>
        <mxCell id="K2g0FsAZ2H5_rs0uaE8K-42" value="Forma de pagamento?" style="rhombus;whiteSpace=wrap;html=1;" vertex="1" parent="1">
          <mxGeometry x="710" y="1120" width="120" height="60" as="geometry" />
        </mxCell>
        <mxCell id="K2g0FsAZ2H5_rs0uaE8K-43" style="edgeStyle=orthogonalEdgeStyle;rounded=0;orthogonalLoop=1;jettySize=auto;html=1;" edge="1" parent="1" source="K2g0FsAZ2H5_rs0uaE8K-44" target="K2g0FsAZ2H5_rs0uaE8K-55">
          <mxGeometry relative="1" as="geometry" />
        </mxCell>
        <mxCell id="K2g0FsAZ2H5_rs0uaE8K-44" value="Cartão de débito" style="whiteSpace=wrap;html=1;" vertex="1" parent="1">
          <mxGeometry x="920" y="1210" width="120" height="60" as="geometry" />
        </mxCell>
        <mxCell id="K2g0FsAZ2H5_rs0uaE8K-45" style="edgeStyle=orthogonalEdgeStyle;rounded=0;orthogonalLoop=1;jettySize=auto;html=1;entryX=0;entryY=0.5;entryDx=0;entryDy=0;" edge="1" parent="1" source="K2g0FsAZ2H5_rs0uaE8K-46" target="K2g0FsAZ2H5_rs0uaE8K-37">
          <mxGeometry relative="1" as="geometry" />
        </mxCell>
        <mxCell id="K2g0FsAZ2H5_rs0uaE8K-46" value="Cartão de Credito" style="whiteSpace=wrap;html=1;" vertex="1" parent="1">
          <mxGeometry x="920" y="1120" width="120" height="60" as="geometry" />
        </mxCell>
        <mxCell id="K2g0FsAZ2H5_rs0uaE8K-47" style="edgeStyle=orthogonalEdgeStyle;rounded=0;orthogonalLoop=1;jettySize=auto;html=1;entryX=0;entryY=0.5;entryDx=0;entryDy=0;" edge="1" parent="1" source="K2g0FsAZ2H5_rs0uaE8K-48" target="K2g0FsAZ2H5_rs0uaE8K-57">
          <mxGeometry relative="1" as="geometry" />
        </mxCell>
        <mxCell id="K2g0FsAZ2H5_rs0uaE8K-48" value="Pix" style="whiteSpace=wrap;html=1;" vertex="1" parent="1">
          <mxGeometry x="920" y="1310" width="120" height="60" as="geometry" />
        </mxCell>
        <mxCell id="K2g0FsAZ2H5_rs0uaE8K-49" style="edgeStyle=orthogonalEdgeStyle;rounded=0;orthogonalLoop=1;jettySize=auto;html=1;entryX=0;entryY=0.5;entryDx=0;entryDy=0;" edge="1" parent="1" target="K2g0FsAZ2H5_rs0uaE8K-53">
          <mxGeometry relative="1" as="geometry">
            <mxPoint x="1230" y="1150" as="sourcePoint" />
          </mxGeometry>
        </mxCell>
        <mxCell id="K2g0FsAZ2H5_rs0uaE8K-50" style="edgeStyle=orthogonalEdgeStyle;rounded=0;orthogonalLoop=1;jettySize=auto;html=1;entryX=0;entryY=0.5;entryDx=0;entryDy=0;" edge="1" parent="1" source="K2g0FsAZ2H5_rs0uaE8K-51" target="K2g0FsAZ2H5_rs0uaE8K-59">
          <mxGeometry relative="1" as="geometry">
            <Array as="points">
              <mxPoint x="1460" y="1030" />
              <mxPoint x="1460" y="1150" />
            </Array>
          </mxGeometry>
        </mxCell>
        <mxCell id="K2g0FsAZ2H5_rs0uaE8K-51" value="Mostrar valor total com desconto á vista" style="whiteSpace=wrap;html=1;" vertex="1" parent="1">
          <mxGeometry x="1310" y="1000" width="120" height="60" as="geometry" />
        </mxCell>
        <mxCell id="K2g0FsAZ2H5_rs0uaE8K-52" style="edgeStyle=orthogonalEdgeStyle;rounded=0;orthogonalLoop=1;jettySize=auto;html=1;entryX=0;entryY=0.5;entryDx=0;entryDy=0;" edge="1" parent="1" source="K2g0FsAZ2H5_rs0uaE8K-53" target="K2g0FsAZ2H5_rs0uaE8K-59">
          <mxGeometry relative="1" as="geometry" />
        </mxCell>
        <mxCell id="K2g0FsAZ2H5_rs0uaE8K-53" value="Mostrar valor total com juros de parcelas" style="whiteSpace=wrap;html=1;" vertex="1" parent="1">
          <mxGeometry x="1310" y="1120" width="120" height="60" as="geometry" />
        </mxCell>
        <mxCell id="K2g0FsAZ2H5_rs0uaE8K-54" style="edgeStyle=orthogonalEdgeStyle;rounded=0;orthogonalLoop=1;jettySize=auto;html=1;entryX=0;entryY=0.5;entryDx=0;entryDy=0;" edge="1" parent="1" source="K2g0FsAZ2H5_rs0uaE8K-55" target="K2g0FsAZ2H5_rs0uaE8K-59">
          <mxGeometry relative="1" as="geometry">
            <Array as="points">
              <mxPoint x="1460" y="1240" />
              <mxPoint x="1460" y="1150" />
            </Array>
          </mxGeometry>
        </mxCell>
        <mxCell id="K2g0FsAZ2H5_rs0uaE8K-55" value="Mostrar valor total com desconto á vista" style="whiteSpace=wrap;html=1;" vertex="1" parent="1">
          <mxGeometry x="1110" y="1210" width="120" height="60" as="geometry" />
        </mxCell>
        <mxCell id="K2g0FsAZ2H5_rs0uaE8K-56" style="edgeStyle=orthogonalEdgeStyle;rounded=0;orthogonalLoop=1;jettySize=auto;html=1;entryX=0;entryY=0.5;entryDx=0;entryDy=0;" edge="1" parent="1" source="K2g0FsAZ2H5_rs0uaE8K-57" target="K2g0FsAZ2H5_rs0uaE8K-59">
          <mxGeometry relative="1" as="geometry">
            <Array as="points">
              <mxPoint x="1460" y="1340" />
              <mxPoint x="1460" y="1150" />
            </Array>
          </mxGeometry>
        </mxCell>
        <mxCell id="K2g0FsAZ2H5_rs0uaE8K-57" value="Mostrar valor total com desconto á vista" style="whiteSpace=wrap;html=1;" vertex="1" parent="1">
          <mxGeometry x="1110" y="1310" width="120" height="60" as="geometry" />
        </mxCell>
        <mxCell id="K2g0FsAZ2H5_rs0uaE8K-58" style="edgeStyle=orthogonalEdgeStyle;rounded=0;orthogonalLoop=1;jettySize=auto;html=1;entryX=0;entryY=0.5;entryDx=0;entryDy=0;" edge="1" parent="1" source="K2g0FsAZ2H5_rs0uaE8K-59" target="K2g0FsAZ2H5_rs0uaE8K-68">
          <mxGeometry relative="1" as="geometry" />
        </mxCell>
        <mxCell id="K2g0FsAZ2H5_rs0uaE8K-59" value="Oferecer seguros e planos" style="whiteSpace=wrap;html=1;" vertex="1" parent="1">
          <mxGeometry x="1510" y="1120" width="120" height="60" as="geometry" />
        </mxCell>
        <mxCell id="K2g0FsAZ2H5_rs0uaE8K-60" style="edgeStyle=orthogonalEdgeStyle;rounded=0;orthogonalLoop=1;jettySize=auto;html=1;" edge="1" parent="1" source="K2g0FsAZ2H5_rs0uaE8K-62" target="K2g0FsAZ2H5_rs0uaE8K-65">
          <mxGeometry relative="1" as="geometry" />
        </mxCell>
        <mxCell id="K2g0FsAZ2H5_rs0uaE8K-61" style="edgeStyle=orthogonalEdgeStyle;rounded=0;orthogonalLoop=1;jettySize=auto;html=1;" edge="1" parent="1" source="K2g0FsAZ2H5_rs0uaE8K-62" target="K2g0FsAZ2H5_rs0uaE8K-64">
          <mxGeometry relative="1" as="geometry" />
        </mxCell>
        <mxCell id="K2g0FsAZ2H5_rs0uaE8K-62" value="Pagamento aprovado?" style="rhombus;whiteSpace=wrap;html=1;" vertex="1" parent="1">
          <mxGeometry x="2380" y="1120" width="120" height="60" as="geometry" />
        </mxCell>
        <mxCell id="K2g0FsAZ2H5_rs0uaE8K-63" style="edgeStyle=orthogonalEdgeStyle;rounded=0;orthogonalLoop=1;jettySize=auto;html=1;entryX=0;entryY=0.5;entryDx=0;entryDy=0;" edge="1" parent="1" source="K2g0FsAZ2H5_rs0uaE8K-64" target="K2g0FsAZ2H5_rs0uaE8K-85">
          <mxGeometry relative="1" as="geometry" />
        </mxCell>
        <mxCell id="K2g0FsAZ2H5_rs0uaE8K-64" value="Falar outras formas de pagamento" style="whiteSpace=wrap;html=1;" vertex="1" parent="1">
          <mxGeometry x="2560" y="1010" width="120" height="60" as="geometry" />
        </mxCell>
        <mxCell id="K2g0FsAZ2H5_rs0uaE8K-65" value="Entregar produto + nota fiscal" style="whiteSpace=wrap;html=1;" vertex="1" parent="1">
          <mxGeometry x="2560" y="1220" width="120" height="60" as="geometry" />
        </mxCell>
        <mxCell id="K2g0FsAZ2H5_rs0uaE8K-66" style="edgeStyle=orthogonalEdgeStyle;rounded=0;orthogonalLoop=1;jettySize=auto;html=1;entryX=0.5;entryY=1;entryDx=0;entryDy=0;" edge="1" parent="1" source="K2g0FsAZ2H5_rs0uaE8K-68" target="K2g0FsAZ2H5_rs0uaE8K-72">
          <mxGeometry relative="1" as="geometry" />
        </mxCell>
        <mxCell id="K2g0FsAZ2H5_rs0uaE8K-67" style="edgeStyle=orthogonalEdgeStyle;rounded=0;orthogonalLoop=1;jettySize=auto;html=1;entryX=0.5;entryY=0;entryDx=0;entryDy=0;" edge="1" parent="1" source="K2g0FsAZ2H5_rs0uaE8K-68" target="K2g0FsAZ2H5_rs0uaE8K-74">
          <mxGeometry relative="1" as="geometry" />
        </mxCell>
        <mxCell id="K2g0FsAZ2H5_rs0uaE8K-68" value="Aceitou ofertas?" style="rhombus;whiteSpace=wrap;html=1;" vertex="1" parent="1">
          <mxGeometry x="1700" y="1120" width="120" height="60" as="geometry" />
        </mxCell>
        <mxCell id="K2g0FsAZ2H5_rs0uaE8K-69" value="sim" style="text;html=1;strokeColor=none;fillColor=none;align=center;verticalAlign=middle;whiteSpace=wrap;rounded=0;" vertex="1" parent="1">
          <mxGeometry x="1250" y="1000" width="60" height="30" as="geometry" />
        </mxCell>
        <mxCell id="K2g0FsAZ2H5_rs0uaE8K-70" value="não" style="text;html=1;strokeColor=none;fillColor=none;align=center;verticalAlign=middle;whiteSpace=wrap;rounded=0;" vertex="1" parent="1">
          <mxGeometry x="1250" y="1120" width="60" height="30" as="geometry" />
        </mxCell>
        <mxCell id="K2g0FsAZ2H5_rs0uaE8K-71" style="edgeStyle=orthogonalEdgeStyle;rounded=0;orthogonalLoop=1;jettySize=auto;html=1;entryX=0.5;entryY=0;entryDx=0;entryDy=0;" edge="1" parent="1" source="K2g0FsAZ2H5_rs0uaE8K-72" target="K2g0FsAZ2H5_rs0uaE8K-78">
          <mxGeometry relative="1" as="geometry" />
        </mxCell>
        <mxCell id="K2g0FsAZ2H5_rs0uaE8K-72" value="Mostrar valor anterior + seguros e planos" style="rounded=0;whiteSpace=wrap;html=1;" vertex="1" parent="1">
          <mxGeometry x="1840" y="1000" width="120" height="60" as="geometry" />
        </mxCell>
        <mxCell id="K2g0FsAZ2H5_rs0uaE8K-73" style="edgeStyle=orthogonalEdgeStyle;rounded=0;orthogonalLoop=1;jettySize=auto;html=1;entryX=0.5;entryY=1;entryDx=0;entryDy=0;" edge="1" parent="1" source="K2g0FsAZ2H5_rs0uaE8K-74" target="K2g0FsAZ2H5_rs0uaE8K-78">
          <mxGeometry relative="1" as="geometry" />
        </mxCell>
        <mxCell id="K2g0FsAZ2H5_rs0uaE8K-74" value="Continuar valor anterior" style="rounded=0;whiteSpace=wrap;html=1;" vertex="1" parent="1">
          <mxGeometry x="1840" y="1230" width="120" height="60" as="geometry" />
        </mxCell>
        <mxCell id="K2g0FsAZ2H5_rs0uaE8K-75" value="sim" style="text;html=1;strokeColor=none;fillColor=none;align=center;verticalAlign=middle;whiteSpace=wrap;rounded=0;" vertex="1" parent="1">
          <mxGeometry x="1840" y="1060" width="60" height="30" as="geometry" />
        </mxCell>
        <mxCell id="K2g0FsAZ2H5_rs0uaE8K-76" value="não" style="text;html=1;strokeColor=none;fillColor=none;align=center;verticalAlign=middle;whiteSpace=wrap;rounded=0;" vertex="1" parent="1">
          <mxGeometry x="1840" y="1200" width="60" height="30" as="geometry" />
        </mxCell>
        <mxCell id="K2g0FsAZ2H5_rs0uaE8K-77" style="edgeStyle=orthogonalEdgeStyle;rounded=0;orthogonalLoop=1;jettySize=auto;html=1;entryX=0;entryY=0.5;entryDx=0;entryDy=0;" edge="1" parent="1" source="K2g0FsAZ2H5_rs0uaE8K-78" target="K2g0FsAZ2H5_rs0uaE8K-80">
          <mxGeometry relative="1" as="geometry" />
        </mxCell>
        <mxCell id="K2g0FsAZ2H5_rs0uaE8K-78" value="Gerar código de pagamento" style="rounded=0;whiteSpace=wrap;html=1;" vertex="1" parent="1">
          <mxGeometry x="2010" y="1120" width="120" height="60" as="geometry" />
        </mxCell>
        <mxCell id="K2g0FsAZ2H5_rs0uaE8K-79" style="edgeStyle=orthogonalEdgeStyle;rounded=0;orthogonalLoop=1;jettySize=auto;html=1;" edge="1" parent="1" source="K2g0FsAZ2H5_rs0uaE8K-80" target="K2g0FsAZ2H5_rs0uaE8K-62">
          <mxGeometry relative="1" as="geometry" />
        </mxCell>
        <mxCell id="K2g0FsAZ2H5_rs0uaE8K-80" value="Validar pagamento" style="rounded=0;whiteSpace=wrap;html=1;" vertex="1" parent="1">
          <mxGeometry x="2190" y="1120" width="120" height="60" as="geometry" />
        </mxCell>
        <mxCell id="K2g0FsAZ2H5_rs0uaE8K-81" value="sim" style="text;html=1;strokeColor=none;fillColor=none;align=center;verticalAlign=middle;whiteSpace=wrap;rounded=0;" vertex="1" parent="1">
          <mxGeometry x="2560" y="1190" width="60" height="30" as="geometry" />
        </mxCell>
        <mxCell id="K2g0FsAZ2H5_rs0uaE8K-82" value="não" style="text;html=1;strokeColor=none;fillColor=none;align=center;verticalAlign=middle;whiteSpace=wrap;rounded=0;" vertex="1" parent="1">
          <mxGeometry x="2560" y="1070" width="60" height="30" as="geometry" />
        </mxCell>
        <mxCell id="K2g0FsAZ2H5_rs0uaE8K-83" style="edgeStyle=orthogonalEdgeStyle;rounded=0;orthogonalLoop=1;jettySize=auto;html=1;" edge="1" parent="1" source="K2g0FsAZ2H5_rs0uaE8K-85" target="K2g0FsAZ2H5_rs0uaE8K-87">
          <mxGeometry relative="1" as="geometry" />
        </mxCell>
        <mxCell id="K2g0FsAZ2H5_rs0uaE8K-84" style="edgeStyle=orthogonalEdgeStyle;rounded=0;orthogonalLoop=1;jettySize=auto;html=1;" edge="1" parent="1" source="K2g0FsAZ2H5_rs0uaE8K-85" target="K2g0FsAZ2H5_rs0uaE8K-78">
          <mxGeometry relative="1" as="geometry">
            <Array as="points">
              <mxPoint x="2960" y="1040" />
              <mxPoint x="2960" y="1330" />
              <mxPoint x="2070" y="1330" />
            </Array>
          </mxGeometry>
        </mxCell>
        <mxCell id="K2g0FsAZ2H5_rs0uaE8K-85" value="Outra forma de pagamento?" style="rhombus;whiteSpace=wrap;html=1;" vertex="1" parent="1">
          <mxGeometry x="2770" y="1010" width="120" height="60" as="geometry" />
        </mxCell>
        <mxCell id="K2g0FsAZ2H5_rs0uaE8K-86" style="edgeStyle=orthogonalEdgeStyle;rounded=0;orthogonalLoop=1;jettySize=auto;html=1;" edge="1" parent="1" source="K2g0FsAZ2H5_rs0uaE8K-87" target="K2g0FsAZ2H5_rs0uaE8K-90">
          <mxGeometry relative="1" as="geometry" />
        </mxCell>
        <mxCell id="K2g0FsAZ2H5_rs0uaE8K-87" value="Falar horário de funcionamento" style="whiteSpace=wrap;html=1;" vertex="1" parent="1">
          <mxGeometry x="2900" y="912.5" width="120" height="60" as="geometry" />
        </mxCell>
        <mxCell id="K2g0FsAZ2H5_rs0uaE8K-88" value="sim" style="text;html=1;strokeColor=none;fillColor=none;align=center;verticalAlign=middle;whiteSpace=wrap;rounded=0;" vertex="1" parent="1">
          <mxGeometry x="2900" y="1300" width="60" height="30" as="geometry" />
        </mxCell>
        <mxCell id="K2g0FsAZ2H5_rs0uaE8K-89" value="não" style="text;html=1;strokeColor=none;fillColor=none;align=center;verticalAlign=middle;whiteSpace=wrap;rounded=0;" vertex="1" parent="1">
          <mxGeometry x="2900" y="972.5" width="60" height="30" as="geometry" />
        </mxCell>
        <mxCell id="K2g0FsAZ2H5_rs0uaE8K-90" value="Cliente sai da loja" style="ellipse;whiteSpace=wrap;html=1;" vertex="1" parent="1">
          <mxGeometry x="3130" y="912.5" width="120" height="60" as="geometry" />
        </mxCell>
        <mxCell id="K2g0FsAZ2H5_rs0uaE8K-91" style="edgeStyle=orthogonalEdgeStyle;rounded=0;orthogonalLoop=1;jettySize=auto;html=1;" edge="1" parent="1" source="K2g0FsAZ2H5_rs0uaE8K-92" target="K2g0FsAZ2H5_rs0uaE8K-94">
          <mxGeometry relative="1" as="geometry" />
        </mxCell>
        <mxCell id="K2g0FsAZ2H5_rs0uaE8K-92" value="Espécie" style="whiteSpace=wrap;html=1;" vertex="1" parent="1">
          <mxGeometry x="920" y="1410" width="120" height="60" as="geometry" />
        </mxCell>
        <mxCell id="K2g0FsAZ2H5_rs0uaE8K-93" style="edgeStyle=orthogonalEdgeStyle;rounded=0;orthogonalLoop=1;jettySize=auto;html=1;entryX=0;entryY=0.5;entryDx=0;entryDy=0;" edge="1" parent="1" source="K2g0FsAZ2H5_rs0uaE8K-94" target="K2g0FsAZ2H5_rs0uaE8K-59">
          <mxGeometry relative="1" as="geometry">
            <Array as="points">
              <mxPoint x="1460" y="1440" />
              <mxPoint x="1460" y="1150" />
            </Array>
          </mxGeometry>
        </mxCell>
        <mxCell id="K2g0FsAZ2H5_rs0uaE8K-94" value="Mostrar valor total com desconto á vista" style="whiteSpace=wrap;html=1;" vertex="1" parent="1">
          <mxGeometry x="1110" y="1410" width="120" height="60" as="geometry" />
        </mxCell>
        <mxCell id="K2g0FsAZ2H5_rs0uaE8K-95" style="edgeStyle=orthogonalEdgeStyle;rounded=0;orthogonalLoop=1;jettySize=auto;html=1;" edge="1" parent="1" source="K2g0FsAZ2H5_rs0uaE8K-96" target="K2g0FsAZ2H5_rs0uaE8K-100">
          <mxGeometry relative="1" as="geometry" />
        </mxCell>
        <mxCell id="K2g0FsAZ2H5_rs0uaE8K-96" value="FoneLand Software" style="ellipse;whiteSpace=wrap;html=1;" vertex="1" parent="1">
          <mxGeometry y="-500" width="120" height="80" as="geometry" />
        </mxCell>
        <mxCell id="K2g0FsAZ2H5_rs0uaE8K-97" style="edgeStyle=orthogonalEdgeStyle;rounded=0;orthogonalLoop=1;jettySize=auto;html=1;entryX=0;entryY=0.5;entryDx=0;entryDy=0;" edge="1" parent="1" source="K2g0FsAZ2H5_rs0uaE8K-100" target="K2g0FsAZ2H5_rs0uaE8K-106">
          <mxGeometry relative="1" as="geometry" />
        </mxCell>
        <mxCell id="K2g0FsAZ2H5_rs0uaE8K-98" style="edgeStyle=orthogonalEdgeStyle;rounded=0;orthogonalLoop=1;jettySize=auto;html=1;entryX=0;entryY=0.5;entryDx=0;entryDy=0;" edge="1" parent="1" source="K2g0FsAZ2H5_rs0uaE8K-100" target="K2g0FsAZ2H5_rs0uaE8K-110">
          <mxGeometry relative="1" as="geometry">
            <Array as="points">
              <mxPoint x="340" y="-460" />
              <mxPoint x="340" y="-580" />
              <mxPoint x="430" y="-580" />
            </Array>
          </mxGeometry>
        </mxCell>
        <mxCell id="K2g0FsAZ2H5_rs0uaE8K-99" style="edgeStyle=orthogonalEdgeStyle;rounded=0;orthogonalLoop=1;jettySize=auto;html=1;entryX=0;entryY=0.5;entryDx=0;entryDy=0;" edge="1" parent="1" source="K2g0FsAZ2H5_rs0uaE8K-100" target="K2g0FsAZ2H5_rs0uaE8K-103">
          <mxGeometry relative="1" as="geometry">
            <Array as="points">
              <mxPoint x="340" y="-460" />
              <mxPoint x="340" y="-340" />
            </Array>
          </mxGeometry>
        </mxCell>
        <mxCell id="K2g0FsAZ2H5_rs0uaE8K-100" value="Entre com seu usuário e senha" style="rhombus;whiteSpace=wrap;html=1;" vertex="1" parent="1">
          <mxGeometry x="200" y="-500" width="107" height="80" as="geometry" />
        </mxCell>
        <mxCell id="K2g0FsAZ2H5_rs0uaE8K-101" style="edgeStyle=orthogonalEdgeStyle;rounded=0;orthogonalLoop=1;jettySize=auto;html=1;entryX=0;entryY=0.5;entryDx=0;entryDy=0;" edge="1" parent="1" source="K2g0FsAZ2H5_rs0uaE8K-103" target="K2g0FsAZ2H5_rs0uaE8K-121">
          <mxGeometry relative="1" as="geometry" />
        </mxCell>
        <mxCell id="K2g0FsAZ2H5_rs0uaE8K-102" style="edgeStyle=orthogonalEdgeStyle;rounded=0;orthogonalLoop=1;jettySize=auto;html=1;entryX=0;entryY=0.5;entryDx=0;entryDy=0;" edge="1" parent="1" source="K2g0FsAZ2H5_rs0uaE8K-103" target="K2g0FsAZ2H5_rs0uaE8K-123">
          <mxGeometry relative="1" as="geometry">
            <Array as="points">
              <mxPoint x="580" y="-340" />
              <mxPoint x="580" y="-10" />
            </Array>
          </mxGeometry>
        </mxCell>
        <mxCell id="K2g0FsAZ2H5_rs0uaE8K-103" value="Software atendente de caixa" style="rounded=0;whiteSpace=wrap;html=1;" vertex="1" parent="1">
          <mxGeometry x="430" y="-370" width="120" height="60" as="geometry" />
        </mxCell>
        <mxCell id="K2g0FsAZ2H5_rs0uaE8K-104" style="edgeStyle=orthogonalEdgeStyle;rounded=0;orthogonalLoop=1;jettySize=auto;html=1;" edge="1" parent="1" source="K2g0FsAZ2H5_rs0uaE8K-106" target="K2g0FsAZ2H5_rs0uaE8K-114">
          <mxGeometry relative="1" as="geometry" />
        </mxCell>
        <mxCell id="K2g0FsAZ2H5_rs0uaE8K-105" style="edgeStyle=orthogonalEdgeStyle;rounded=0;orthogonalLoop=1;jettySize=auto;html=1;" edge="1" parent="1" source="K2g0FsAZ2H5_rs0uaE8K-106" target="K2g0FsAZ2H5_rs0uaE8K-127">
          <mxGeometry relative="1" as="geometry" />
        </mxCell>
        <mxCell id="K2g0FsAZ2H5_rs0uaE8K-106" value="Software Vendedor" style="rounded=0;whiteSpace=wrap;html=1;" vertex="1" parent="1">
          <mxGeometry x="430" y="-490" width="120" height="60" as="geometry" />
        </mxCell>
        <mxCell id="K2g0FsAZ2H5_rs0uaE8K-107" style="edgeStyle=orthogonalEdgeStyle;rounded=0;orthogonalLoop=1;jettySize=auto;html=1;" edge="1" parent="1" source="K2g0FsAZ2H5_rs0uaE8K-110" target="K2g0FsAZ2H5_rs0uaE8K-116">
          <mxGeometry relative="1" as="geometry" />
        </mxCell>
        <mxCell id="K2g0FsAZ2H5_rs0uaE8K-108" style="edgeStyle=orthogonalEdgeStyle;rounded=0;orthogonalLoop=1;jettySize=auto;html=1;entryX=0;entryY=0.5;entryDx=0;entryDy=0;" edge="1" parent="1" source="K2g0FsAZ2H5_rs0uaE8K-110" target="K2g0FsAZ2H5_rs0uaE8K-129">
          <mxGeometry relative="1" as="geometry" />
        </mxCell>
        <mxCell id="K2g0FsAZ2H5_rs0uaE8K-109" style="edgeStyle=orthogonalEdgeStyle;rounded=0;orthogonalLoop=1;jettySize=auto;html=1;entryX=0;entryY=0.5;entryDx=0;entryDy=0;" edge="1" parent="1" source="K2g0FsAZ2H5_rs0uaE8K-110" target="K2g0FsAZ2H5_rs0uaE8K-131">
          <mxGeometry relative="1" as="geometry" />
        </mxCell>
        <mxCell id="K2g0FsAZ2H5_rs0uaE8K-110" value="Software gerente" style="rounded=0;whiteSpace=wrap;html=1;" vertex="1" parent="1">
          <mxGeometry x="430" y="-610" width="120" height="60" as="geometry" />
        </mxCell>
        <mxCell id="K2g0FsAZ2H5_rs0uaE8K-111" value="Vendedor" style="text;html=1;strokeColor=none;fillColor=none;align=center;verticalAlign=middle;whiteSpace=wrap;rounded=0;" vertex="1" parent="1">
          <mxGeometry x="350" y="-490" width="60" height="30" as="geometry" />
        </mxCell>
        <mxCell id="K2g0FsAZ2H5_rs0uaE8K-112" value="Caixa" style="text;html=1;strokeColor=none;fillColor=none;align=center;verticalAlign=middle;whiteSpace=wrap;rounded=0;" vertex="1" parent="1">
          <mxGeometry x="350" y="-370" width="60" height="30" as="geometry" />
        </mxCell>
        <mxCell id="K2g0FsAZ2H5_rs0uaE8K-113" value="Gerente" style="text;html=1;strokeColor=none;fillColor=none;align=center;verticalAlign=middle;whiteSpace=wrap;rounded=0;" vertex="1" parent="1">
          <mxGeometry x="350" y="-610" width="60" height="30" as="geometry" />
        </mxCell>
        <mxCell id="K2g0FsAZ2H5_rs0uaE8K-114" value="Software do estoque(visualizar)" style="rounded=0;whiteSpace=wrap;html=1;" vertex="1" parent="1">
          <mxGeometry x="610" y="-450" width="120" height="60" as="geometry" />
        </mxCell>
        <mxCell id="K2g0FsAZ2H5_rs0uaE8K-115" value="Acesso a maquineta&lt;br&gt;de pagamento" style="rounded=0;whiteSpace=wrap;html=1;" vertex="1" parent="1">
          <mxGeometry x="810" y="-370" width="120" height="60" as="geometry" />
        </mxCell>
        <mxCell id="K2g0FsAZ2H5_rs0uaE8K-116" value="Software do estoque(editar - adicionar e remover)" style="rounded=0;whiteSpace=wrap;html=1;" vertex="1" parent="1">
          <mxGeometry x="610" y="-610" width="120" height="60" as="geometry" />
        </mxCell>
        <mxCell id="K2g0FsAZ2H5_rs0uaE8K-117" style="edgeStyle=orthogonalEdgeStyle;rounded=0;orthogonalLoop=1;jettySize=auto;html=1;entryX=0;entryY=0.5;entryDx=0;entryDy=0;" edge="1" parent="1" source="K2g0FsAZ2H5_rs0uaE8K-121" target="K2g0FsAZ2H5_rs0uaE8K-115">
          <mxGeometry relative="1" as="geometry">
            <Array as="points">
              <mxPoint x="810" y="-340" />
            </Array>
          </mxGeometry>
        </mxCell>
        <mxCell id="K2g0FsAZ2H5_rs0uaE8K-118" style="edgeStyle=orthogonalEdgeStyle;rounded=0;orthogonalLoop=1;jettySize=auto;html=1;entryX=0;entryY=0.5;entryDx=0;entryDy=0;" edge="1" parent="1" source="K2g0FsAZ2H5_rs0uaE8K-121" target="K2g0FsAZ2H5_rs0uaE8K-125">
          <mxGeometry relative="1" as="geometry" />
        </mxCell>
        <mxCell id="K2g0FsAZ2H5_rs0uaE8K-119" style="edgeStyle=orthogonalEdgeStyle;rounded=0;orthogonalLoop=1;jettySize=auto;html=1;entryX=0;entryY=0.5;entryDx=0;entryDy=0;" edge="1" parent="1" source="K2g0FsAZ2H5_rs0uaE8K-121" target="K2g0FsAZ2H5_rs0uaE8K-126">
          <mxGeometry relative="1" as="geometry" />
        </mxCell>
        <mxCell id="K2g0FsAZ2H5_rs0uaE8K-120" style="edgeStyle=orthogonalEdgeStyle;rounded=0;orthogonalLoop=1;jettySize=auto;html=1;entryX=0;entryY=0.5;entryDx=0;entryDy=0;" edge="1" parent="1" source="K2g0FsAZ2H5_rs0uaE8K-121" target="K2g0FsAZ2H5_rs0uaE8K-134">
          <mxGeometry relative="1" as="geometry" />
        </mxCell>
        <mxCell id="K2g0FsAZ2H5_rs0uaE8K-121" value="Software de pagamento" style="rounded=0;whiteSpace=wrap;html=1;" vertex="1" parent="1">
          <mxGeometry x="610" y="-370" width="120" height="60" as="geometry" />
        </mxCell>
        <mxCell id="K2g0FsAZ2H5_rs0uaE8K-122" value="" style="edgeStyle=orthogonalEdgeStyle;rounded=0;orthogonalLoop=1;jettySize=auto;html=1;" edge="1" parent="1" source="K2g0FsAZ2H5_rs0uaE8K-123" target="K2g0FsAZ2H5_rs0uaE8K-124">
          <mxGeometry relative="1" as="geometry" />
        </mxCell>
        <mxCell id="K2g0FsAZ2H5_rs0uaE8K-123" value="Software do estoque(editar - remoção)" style="rounded=0;whiteSpace=wrap;html=1;" vertex="1" parent="1">
          <mxGeometry x="610" y="-40" width="120" height="60" as="geometry" />
        </mxCell>
        <mxCell id="K2g0FsAZ2H5_rs0uaE8K-124" value="Compra aprovada - subtrai do estoque" style="whiteSpace=wrap;html=1;rounded=0;" vertex="1" parent="1">
          <mxGeometry x="810" y="-40" width="120" height="60" as="geometry" />
        </mxCell>
        <mxCell id="K2g0FsAZ2H5_rs0uaE8K-125" value="Gerar código QR&lt;br&gt;(PIX)" style="rounded=0;whiteSpace=wrap;html=1;" vertex="1" parent="1">
          <mxGeometry x="810" y="-290" width="120" height="60" as="geometry" />
        </mxCell>
        <mxCell id="K2g0FsAZ2H5_rs0uaE8K-126" value="Acesso ao dinheiro do respectivo caixa" style="rounded=0;whiteSpace=wrap;html=1;" vertex="1" parent="1">
          <mxGeometry x="810" y="-210" width="120" height="60" as="geometry" />
        </mxCell>
        <mxCell id="K2g0FsAZ2H5_rs0uaE8K-127" value="Software calculo de comissão" style="rounded=0;whiteSpace=wrap;html=1;" vertex="1" parent="1">
          <mxGeometry x="610" y="-530" width="120" height="60" as="geometry" />
        </mxCell>
        <mxCell id="K2g0FsAZ2H5_rs0uaE8K-128" style="edgeStyle=orthogonalEdgeStyle;rounded=0;orthogonalLoop=1;jettySize=auto;html=1;entryX=0;entryY=0.5;entryDx=0;entryDy=0;" edge="1" parent="1" source="K2g0FsAZ2H5_rs0uaE8K-129" target="K2g0FsAZ2H5_rs0uaE8K-133">
          <mxGeometry relative="1" as="geometry" />
        </mxCell>
        <mxCell id="K2g0FsAZ2H5_rs0uaE8K-129" value="Software de devolução de valores e troca de produtos" style="rounded=0;whiteSpace=wrap;html=1;" vertex="1" parent="1">
          <mxGeometry x="610" y="-690" width="120" height="60" as="geometry" />
        </mxCell>
        <mxCell id="K2g0FsAZ2H5_rs0uaE8K-130" value="" style="edgeStyle=orthogonalEdgeStyle;rounded=0;orthogonalLoop=1;jettySize=auto;html=1;" edge="1" parent="1" source="K2g0FsAZ2H5_rs0uaE8K-131" target="K2g0FsAZ2H5_rs0uaE8K-132">
          <mxGeometry relative="1" as="geometry" />
        </mxCell>
        <mxCell id="K2g0FsAZ2H5_rs0uaE8K-131" value="Capital da loja" style="rounded=0;whiteSpace=wrap;html=1;" vertex="1" parent="1">
          <mxGeometry x="610" y="-770" width="120" height="60" as="geometry" />
        </mxCell>
        <mxCell id="K2g0FsAZ2H5_rs0uaE8K-132" value="Calculo de lucro/dia,&lt;br&gt;lucro/mês" style="rounded=0;whiteSpace=wrap;html=1;" vertex="1" parent="1">
          <mxGeometry x="810" y="-770" width="120" height="60" as="geometry" />
        </mxCell>
        <mxCell id="K2g0FsAZ2H5_rs0uaE8K-133" value="Ver notas fiscais geradas" style="rounded=0;whiteSpace=wrap;html=1;" vertex="1" parent="1">
          <mxGeometry x="810" y="-690" width="120" height="60" as="geometry" />
        </mxCell>
        <mxCell id="K2g0FsAZ2H5_rs0uaE8K-134" value="Gerar nota fiscal" style="rounded=0;whiteSpace=wrap;html=1;" vertex="1" parent="1">
          <mxGeometry x="810" y="-130" width="120" height="60" as="geometry" />
        </mxCell>
        <mxCell id="K2g0FsAZ2H5_rs0uaE8K-227" style="edgeStyle=orthogonalEdgeStyle;rounded=0;orthogonalLoop=1;jettySize=auto;html=1;entryX=0;entryY=0.5;entryDx=0;entryDy=0;" edge="1" parent="1" target="K2g0FsAZ2H5_rs0uaE8K-229">
          <mxGeometry relative="1" as="geometry">
            <mxPoint x="230" y="349.9999999999998" as="sourcePoint" />
          </mxGeometry>
        </mxCell>
        <mxCell id="K2g0FsAZ2H5_rs0uaE8K-228" style="edgeStyle=orthogonalEdgeStyle;rounded=0;orthogonalLoop=1;jettySize=auto;html=1;entryX=0;entryY=0.5;entryDx=0;entryDy=0;" edge="1" parent="1" source="K2g0FsAZ2H5_rs0uaE8K-229" target="K2g0FsAZ2H5_rs0uaE8K-232">
          <mxGeometry relative="1" as="geometry" />
        </mxCell>
        <mxCell id="K2g0FsAZ2H5_rs0uaE8K-229" value="acessa a home software estoque" style="rounded=0;whiteSpace=wrap;html=1;" vertex="1" parent="1">
          <mxGeometry x="300" y="320" width="120" height="60" as="geometry" />
        </mxCell>
        <mxCell id="K2g0FsAZ2H5_rs0uaE8K-230" style="edgeStyle=orthogonalEdgeStyle;rounded=0;orthogonalLoop=1;jettySize=auto;html=1;entryX=0;entryY=0.5;entryDx=0;entryDy=0;" edge="1" parent="1" source="K2g0FsAZ2H5_rs0uaE8K-232" target="K2g0FsAZ2H5_rs0uaE8K-234">
          <mxGeometry relative="1" as="geometry" />
        </mxCell>
        <mxCell id="K2g0FsAZ2H5_rs0uaE8K-231" style="edgeStyle=orthogonalEdgeStyle;rounded=0;orthogonalLoop=1;jettySize=auto;html=1;" edge="1" parent="1" source="K2g0FsAZ2H5_rs0uaE8K-232" target="K2g0FsAZ2H5_rs0uaE8K-242">
          <mxGeometry relative="1" as="geometry" />
        </mxCell>
        <mxCell id="K2g0FsAZ2H5_rs0uaE8K-232" value="recebimento de produto?" style="rhombus;whiteSpace=wrap;html=1;rounded=0;" vertex="1" parent="1">
          <mxGeometry x="480" y="310" width="120" height="80" as="geometry" />
        </mxCell>
        <mxCell id="K2g0FsAZ2H5_rs0uaE8K-233" style="edgeStyle=orthogonalEdgeStyle;rounded=0;orthogonalLoop=1;jettySize=auto;html=1;entryX=0;entryY=0.5;entryDx=0;entryDy=0;" edge="1" parent="1" source="K2g0FsAZ2H5_rs0uaE8K-234" target="K2g0FsAZ2H5_rs0uaE8K-238">
          <mxGeometry relative="1" as="geometry" />
        </mxCell>
        <mxCell id="K2g0FsAZ2H5_rs0uaE8K-234" value="catalogar produtos" style="rounded=0;whiteSpace=wrap;html=1;" vertex="1" parent="1">
          <mxGeometry x="740" y="250" width="120" height="60" as="geometry" />
        </mxCell>
        <mxCell id="K2g0FsAZ2H5_rs0uaE8K-235" value="sim" style="text;html=1;strokeColor=none;fillColor=none;align=center;verticalAlign=middle;whiteSpace=wrap;rounded=0;" vertex="1" parent="1">
          <mxGeometry x="670" y="250" width="60" height="30" as="geometry" />
        </mxCell>
        <mxCell id="K2g0FsAZ2H5_rs0uaE8K-236" value="não" style="text;html=1;strokeColor=none;fillColor=none;align=center;verticalAlign=middle;whiteSpace=wrap;rounded=0;" vertex="1" parent="1">
          <mxGeometry x="670" y="400" width="60" height="30" as="geometry" />
        </mxCell>
        <mxCell id="K2g0FsAZ2H5_rs0uaE8K-237" style="edgeStyle=orthogonalEdgeStyle;rounded=0;orthogonalLoop=1;jettySize=auto;html=1;entryX=0;entryY=0.5;entryDx=0;entryDy=0;" edge="1" parent="1" source="K2g0FsAZ2H5_rs0uaE8K-238" target="K2g0FsAZ2H5_rs0uaE8K-239">
          <mxGeometry relative="1" as="geometry" />
        </mxCell>
        <mxCell id="K2g0FsAZ2H5_rs0uaE8K-238" value="Registrar recebimento" style="rounded=0;whiteSpace=wrap;html=1;" vertex="1" parent="1">
          <mxGeometry x="930" y="250" width="120" height="60" as="geometry" />
        </mxCell>
        <mxCell id="K2g0FsAZ2H5_rs0uaE8K-239" value="Registrar estoque" style="rounded=0;whiteSpace=wrap;html=1;" vertex="1" parent="1">
          <mxGeometry x="1114" y="250" width="120" height="60" as="geometry" />
        </mxCell>
        <mxCell id="K2g0FsAZ2H5_rs0uaE8K-240" style="edgeStyle=orthogonalEdgeStyle;rounded=0;orthogonalLoop=1;jettySize=auto;html=1;entryX=0;entryY=0.5;entryDx=0;entryDy=0;" edge="1" parent="1" source="K2g0FsAZ2H5_rs0uaE8K-242" target="K2g0FsAZ2H5_rs0uaE8K-245">
          <mxGeometry relative="1" as="geometry" />
        </mxCell>
        <mxCell id="K2g0FsAZ2H5_rs0uaE8K-268" style="edgeStyle=orthogonalEdgeStyle;rounded=0;orthogonalLoop=1;jettySize=auto;html=1;entryX=0.5;entryY=1;entryDx=0;entryDy=0;" edge="1" parent="1" source="K2g0FsAZ2H5_rs0uaE8K-242" target="K2g0FsAZ2H5_rs0uaE8K-229">
          <mxGeometry relative="1" as="geometry">
            <Array as="points">
              <mxPoint x="790" y="510" />
              <mxPoint x="360" y="510" />
            </Array>
          </mxGeometry>
        </mxCell>
        <mxCell id="K2g0FsAZ2H5_rs0uaE8K-242" value="troca de produto ou reembolso?" style="rhombus;whiteSpace=wrap;html=1;" vertex="1" parent="1">
          <mxGeometry x="740" y="390" width="100" height="80" as="geometry" />
        </mxCell>
        <mxCell id="K2g0FsAZ2H5_rs0uaE8K-243" style="edgeStyle=orthogonalEdgeStyle;rounded=0;orthogonalLoop=1;jettySize=auto;html=1;entryX=0;entryY=0.5;entryDx=0;entryDy=0;" edge="1" parent="1" source="K2g0FsAZ2H5_rs0uaE8K-245" target="K2g0FsAZ2H5_rs0uaE8K-255">
          <mxGeometry relative="1" as="geometry">
            <Array as="points">
              <mxPoint x="1080" y="430" />
              <mxPoint x="1080" y="540" />
            </Array>
          </mxGeometry>
        </mxCell>
        <mxCell id="K2g0FsAZ2H5_rs0uaE8K-271" style="edgeStyle=orthogonalEdgeStyle;rounded=0;orthogonalLoop=1;jettySize=auto;html=1;" edge="1" parent="1" source="K2g0FsAZ2H5_rs0uaE8K-245" target="K2g0FsAZ2H5_rs0uaE8K-263">
          <mxGeometry relative="1" as="geometry" />
        </mxCell>
        <mxCell id="K2g0FsAZ2H5_rs0uaE8K-245" value="cliente possui nota fiscal?" style="rhombus;whiteSpace=wrap;html=1;" vertex="1" parent="1">
          <mxGeometry x="920" y="390" width="120" height="80" as="geometry" />
        </mxCell>
        <mxCell id="K2g0FsAZ2H5_rs0uaE8K-246" value="sim" style="text;html=1;strokeColor=none;fillColor=none;align=center;verticalAlign=middle;whiteSpace=wrap;rounded=0;" vertex="1" parent="1">
          <mxGeometry x="860" y="400" width="60" height="30" as="geometry" />
        </mxCell>
        <mxCell id="K2g0FsAZ2H5_rs0uaE8K-255" value="Não efetuar troca" style="rounded=0;whiteSpace=wrap;html=1;" vertex="1" parent="1">
          <mxGeometry x="1150" y="510" width="120" height="60" as="geometry" />
        </mxCell>
        <mxCell id="K2g0FsAZ2H5_rs0uaE8K-257" value="Gerente acessa FoneLand software" style="ellipse;whiteSpace=wrap;html=1;" vertex="1" parent="1">
          <mxGeometry x="110" y="310" width="120" height="80" as="geometry" />
        </mxCell>
        <mxCell id="K2g0FsAZ2H5_rs0uaE8K-272" style="edgeStyle=orthogonalEdgeStyle;rounded=0;orthogonalLoop=1;jettySize=auto;html=1;entryX=0.5;entryY=0;entryDx=0;entryDy=0;" edge="1" parent="1" source="K2g0FsAZ2H5_rs0uaE8K-263" target="K2g0FsAZ2H5_rs0uaE8K-255">
          <mxGeometry relative="1" as="geometry" />
        </mxCell>
        <mxCell id="K2g0FsAZ2H5_rs0uaE8K-275" style="edgeStyle=orthogonalEdgeStyle;rounded=0;orthogonalLoop=1;jettySize=auto;html=1;entryX=0;entryY=0.5;entryDx=0;entryDy=0;" edge="1" parent="1" source="K2g0FsAZ2H5_rs0uaE8K-263" target="K2g0FsAZ2H5_rs0uaE8K-264">
          <mxGeometry relative="1" as="geometry" />
        </mxCell>
        <mxCell id="K2g0FsAZ2H5_rs0uaE8K-263" value="Esta dentro da garantia?" style="rhombus;whiteSpace=wrap;html=1;" vertex="1" parent="1">
          <mxGeometry x="1150" y="390" width="120" height="80" as="geometry" />
        </mxCell>
        <mxCell id="K2g0FsAZ2H5_rs0uaE8K-280" style="edgeStyle=orthogonalEdgeStyle;rounded=0;orthogonalLoop=1;jettySize=auto;html=1;entryX=0;entryY=0.5;entryDx=0;entryDy=0;" edge="1" parent="1" source="K2g0FsAZ2H5_rs0uaE8K-264" target="K2g0FsAZ2H5_rs0uaE8K-278">
          <mxGeometry relative="1" as="geometry" />
        </mxCell>
        <mxCell id="K2g0FsAZ2H5_rs0uaE8K-264" value="fazer analise do produto" style="whiteSpace=wrap;html=1;" vertex="1" parent="1">
          <mxGeometry x="1350" y="400" width="120" height="60" as="geometry" />
        </mxCell>
        <mxCell id="K2g0FsAZ2H5_rs0uaE8K-267" value="não" style="text;html=1;strokeColor=none;fillColor=none;align=center;verticalAlign=middle;whiteSpace=wrap;rounded=0;" vertex="1" parent="1">
          <mxGeometry x="1020" y="480" width="60" height="30" as="geometry" />
        </mxCell>
        <mxCell id="K2g0FsAZ2H5_rs0uaE8K-270" value="sim" style="text;html=1;strokeColor=none;fillColor=none;align=center;verticalAlign=middle;whiteSpace=wrap;rounded=0;" vertex="1" parent="1">
          <mxGeometry x="1080" y="400" width="60" height="30" as="geometry" />
        </mxCell>
        <mxCell id="K2g0FsAZ2H5_rs0uaE8K-274" value="não" style="text;html=1;strokeColor=none;fillColor=none;align=center;verticalAlign=middle;whiteSpace=wrap;rounded=0;" vertex="1" parent="1">
          <mxGeometry x="1210" y="470" width="60" height="30" as="geometry" />
        </mxCell>
        <mxCell id="K2g0FsAZ2H5_rs0uaE8K-276" value="sim" style="text;html=1;strokeColor=none;fillColor=none;align=center;verticalAlign=middle;whiteSpace=wrap;rounded=0;" vertex="1" parent="1">
          <mxGeometry x="1280" y="400" width="60" height="30" as="geometry" />
        </mxCell>
        <mxCell id="K2g0FsAZ2H5_rs0uaE8K-282" style="edgeStyle=orthogonalEdgeStyle;rounded=0;orthogonalLoop=1;jettySize=auto;html=1;" edge="1" parent="1" source="K2g0FsAZ2H5_rs0uaE8K-278" target="K2g0FsAZ2H5_rs0uaE8K-281">
          <mxGeometry relative="1" as="geometry" />
        </mxCell>
        <mxCell id="K2g0FsAZ2H5_rs0uaE8K-283" style="edgeStyle=orthogonalEdgeStyle;rounded=0;orthogonalLoop=1;jettySize=auto;html=1;entryX=1;entryY=0.5;entryDx=0;entryDy=0;" edge="1" parent="1" source="K2g0FsAZ2H5_rs0uaE8K-278" target="K2g0FsAZ2H5_rs0uaE8K-255">
          <mxGeometry relative="1" as="geometry">
            <Array as="points">
              <mxPoint x="1590" y="540" />
            </Array>
          </mxGeometry>
        </mxCell>
        <mxCell id="K2g0FsAZ2H5_rs0uaE8K-278" value="Produto em bom estado?" style="rhombus;whiteSpace=wrap;html=1;" vertex="1" parent="1">
          <mxGeometry x="1530" y="390" width="120" height="80" as="geometry" />
        </mxCell>
        <mxCell id="K2g0FsAZ2H5_rs0uaE8K-281" value="fazer troca ou reembolso" style="whiteSpace=wrap;html=1;" vertex="1" parent="1">
          <mxGeometry x="1730" y="400" width="120" height="60" as="geometry" />
        </mxCell>
        <mxCell id="K2g0FsAZ2H5_rs0uaE8K-284" value="sim" style="text;html=1;strokeColor=none;fillColor=none;align=center;verticalAlign=middle;whiteSpace=wrap;rounded=0;" vertex="1" parent="1">
          <mxGeometry x="1660" y="400" width="60" height="30" as="geometry" />
        </mxCell>
        <mxCell id="K2g0FsAZ2H5_rs0uaE8K-285" value="não" style="text;html=1;strokeColor=none;fillColor=none;align=center;verticalAlign=middle;whiteSpace=wrap;rounded=0;" vertex="1" parent="1">
          <mxGeometry x="1380" y="510" width="60" height="30" as="geometry" />
        </mxCell>
      </root>
    </mxGraphModel>
  </diagram>
</mxfile>
